<svg xmlns="http://www.w3.org/2000/svg" xmlns:xlink="http://www.w3.org/1999/xlink" width="800" height="800" preserveAspectRatio="xMidYMid" version="1.1" viewBox="0 -26 256 256"><g><polygon fill="#00B0FF" points="0 110.848 0 0 96 55.424 96 92.373 32 55.424 32 129.323"/><polygon fill="#0081CB" points="96 55.424 192 0 192 110.848 128 147.797 96 129.323 160 92.373 160 55.424 96 92.373"/><polygon fill="#00B0FF" points="96 129.323 96 166.272 160 203.221 160 166.272"/><path fill="#0081CB" d="M160,203.221333 L256,147.797333 L256,73.8986667 L224,92.3733333 L224,129.322667 L160,166.272 L160,203.221333 Z M224,55.424 L224,18.4746667 L256,5.68434189e-14 L256,36.9493333 L224,55.424 Z"/></g></svg>